<?xml version="1.0" encoding="UTF-8" standalone="no"?>
<svg
   version="1.0"
   width="1024pt"
   height="576pt"
   viewBox="0 0 1024 576"
   preserveAspectRatio="xMidYMid"
   id="svg3"
   sodipodi:docname="AlSet_logo.svg"
   inkscape:export-filename="AlSet_logo9.png"
   inkscape:export-xdpi="1066.625"
   inkscape:export-ydpi="1066.625"
   inkscape:version="1.4.2 (f4327f4, 2025-05-13)"
   xmlns:inkscape="http://www.inkscape.org/namespaces/inkscape"
   xmlns:sodipodi="http://sodipodi.sourceforge.net/DTD/sodipodi-0.dtd"
   xmlns="http://www.w3.org/2000/svg"
   xmlns:svg="http://www.w3.org/2000/svg">
  <sodipodi:namedview
     id="namedview1"
     pagecolor="#505050"
     bordercolor="#eeeeee"
     borderopacity="1"
     inkscape:showpageshadow="0"
     inkscape:pageopacity="0"
     inkscape:pagecheckerboard="0"
     inkscape:deskcolor="#505050"
     inkscape:document-units="pt"
     inkscape:zoom="0.95703125"
     inkscape:cx="666.12245"
     inkscape:cy="540.73469"
     inkscape:window-width="1920"
     inkscape:window-height="974"
     inkscape:window-x="-11"
     inkscape:window-y="-11"
     inkscape:window-maximized="1"
     inkscape:current-layer="svg3" />
  <defs
     id="defs3" />
  <g
     transform="matrix(0.1,0,0,-0.1,-7.0530611,579.91837)"
     fill="#000000"
     stroke="none"
     id="g3"
     style="fill:#1a1a1a">
    <path
       d="M 0,2880 V 0 h 5120 5120 V 2880 5760 H 5120 0 Z m 5245,1399 c 122,-15 294,-60 383,-99 l 72,-33 -1,-301 c -1,-276 -2,-297 -15,-250 -22,82 -86,234 -135,320 -58,104 -182,230 -266,273 -218,109 -501,72 -661,-86 -78,-78 -115,-163 -120,-279 -7,-148 30,-245 137,-358 94,-98 169,-144 572,-349 346,-175 444,-244 534,-376 168,-246 144,-630 -54,-843 -77,-84 -246,-175 -408,-220 -71,-21 -100,-22 -343,-22 -237,0 -276,2 -367,22 -121,26 -256,72 -334,114 l -56,29 -7,182 c -3,100 -9,250 -12,332 l -5,150 40,-116 c 67,-195 134,-311 250,-433 113,-117 257,-205 391,-237 76,-18 241,-15 319,6 89,23 187,74 249,130 103,92 158,262 133,405 -38,213 -176,340 -571,524 -279,130 -515,279 -610,385 -141,155 -206,383 -166,582 25,125 83,237 164,318 109,109 317,204 512,234 55,9 290,6 375,-4 z m -3515,-51 c 13,-32 451,-1137 593,-1498 64,-162 150,-382 192,-489 84,-213 178,-409 221,-460 15,-18 52,-47 83,-64 l 56,-32 -208,-3 c -114,-1 -300,-1 -415,0 l -207,3 53,24 c 69,31 109,77 118,136 10,73 1,113 -71,287 -36,90 -92,227 -123,306 l -57,142 -519,-2 -518,-3 -90,-228 c -91,-235 -138,-379 -138,-426 0,-87 50,-155 152,-205 l 71,-36 H 631 c -160,0 -291,2 -291,4 0,2 27,20 59,40 110,68 199,191 285,396 101,238 696,1799 740,1938 32,103 32,123 0,161 l -26,31 h 161 c 158,0 162,0 171,-22 z m 2115,12 c -3,-5 -11,-10 -16,-10 -25,0 -81,-57 -106,-108 l -28,-57 V 2970 c 0,-1031 1,-1098 18,-1142 17,-43 72,-104 123,-135 15,-9 -57,-12 -335,-12 l -354,-1 55,58 c 30,31 61,75 69,97 12,33 14,220 14,1136 v 1095 l -30,59 c -19,37 -46,72 -73,92 l -44,33 h 357 c 235,0 354,-3 350,-10 z m 4725,-585 v -245 h 275 275 v -32 -33 l -275,3 -276,3 3,-673 3,-673 24,-52 c 13,-29 41,-68 62,-87 39,-36 119,-66 173,-66 59,0 161,31 234,70 l 73,40 -30,-44 c -67,-97 -182,-174 -307,-206 -91,-24 -164,-25 -257,-5 -147,31 -244,100 -291,206 -43,93 -49,239 -41,907 l 6,572 h -120 c -112,0 -121,1 -121,19 0,14 10,21 38,26 90,16 252,115 339,208 57,61 126,162 169,250 15,31 32,57 36,57 4,0 8,-110 8,-245 z M 7236,3450 c 115,-29 210,-80 290,-154 117,-108 189,-263 201,-433 l 6,-83 h -612 -611 v -122 c 0,-263 69,-439 231,-594 73,-69 163,-122 264,-156 59,-19 90,-23 195,-23 118,1 130,3 221,37 149,55 221,112 310,247 27,40 49,70 49,66 0,-20 -55,-156 -88,-219 -119,-227 -375,-366 -675,-366 -239,0 -408,62 -569,210 -115,105 -191,232 -244,405 -26,83 -28,103 -28,265 0,162 2,182 27,265 86,285 280,517 511,613 157,65 365,82 522,42 z M 9673,2089 c 49,-13 105,-63 128,-114 63,-137 -40,-304 -186,-305 -131,0 -217,83 -217,210 0,157 124,251 275,209 z"
       id="path1"
       style="fill:#ffffff"
       sodipodi:nodetypes="cccccccccccccccccccccccscccccccccccccccscccccccccccccccccccsccsscccccsccsccscccccssccccscscccccccccccsccccccccsscccssccccccscccccscsccsccccccsc" />
    <path
       d="m 1365,3722 c -49,-130 -162,-427 -250,-659 L 953,2640 h 490 489 l -5,23 c -2,12 -56,157 -120,322 -163,427 -291,778 -321,880 -14,48 -27,90 -29,91 -2,2 -43,-103 -92,-234 z"
       id="path2"
       style="fill:#ffffff" />
    <path
       d="m 6925,3417 c -138,-35 -254,-135 -324,-278 -41,-84 -81,-217 -81,-271 v -28 h 441 440 l -7,98 c -16,236 -101,408 -225,462 -63,27 -175,35 -244,17 z"
       id="path3"
       style="fill:#ffffff" />
  </g>
  <path
     style="fill:#1f2933;stroke-width:1.04654;fill-opacity:1"
     d="m 39.906311,548.20168 c -1.531628,-0.60412 -0.490854,-1.70104 5.493765,-5.79015 C 62.96644,530.40897 72.642825,514.7503 90.746454,469.0304 111.58642,416.4 172.57099,256.09843 179.54258,235.62449 c 5.52099,-16.21387 5.59006,-20.37484 0.42964,-25.88351 l -2.22326,-2.3733 21.3222,0.28351 21.3222,0.2835 6.38255,16.19592 c 3.51041,8.90776 23.58711,59.6898 44.61489,112.84898 21.02779,53.15919 42.02575,106.34836 46.66212,118.19816 16.05717,41.03947 29.33237,70.19351 36.10335,79.28756 1.4976,2.01142 5.98514,5.81751 9.97229,8.45795 l 7.24937,4.80082 -17.36605,0.6849 c -22.10988,0.87199 -50.56651,0.8689 -71.70461,-0.008 -14.82993,-0.61504 -16.20276,-0.82479 -13.32336,-2.03549 15.00983,-6.31115 20.82853,-18.85686 16.21433,-34.95973 -0.89443,-3.12145 -8.53525,-22.95109 -16.97959,-44.06586 l -15.35334,-38.39049 -57.04412,-0.01 c -31.37426,-0.005 -62.67934,0.29349 -69.56685,0.66383 l -12.52275,0.67335 -9.17811,23.62053 c -14.371369,36.98576 -20.415708,55.8103 -20.428469,63.62262 -0.01932,11.82441 5.485842,19.13707 20.887229,27.74514 l 6.79184,3.79606 L 76.8,549.00433 C 57.547755,548.97279 40.945595,548.6116 39.906311,548.20168 Z M 248.16327,420.17363 c 0,-1.79578 -3.74856,-12.07127 -19.86707,-54.45934 -16.67521,-43.85208 -35.43046,-95.47553 -39.62493,-109.06685 -2.09153,-6.77716 -3.71623,-10.47758 -4.33056,-9.86325 -0.54076,0.54076 -11.50681,28.69676 -24.36902,62.56889 -12.8622,33.87213 -27.66866,72.80084 -32.90325,86.50823 -5.23458,13.70738 -9.51742,25.10983 -9.51742,25.33877 0,0.22894 29.38776,0.41625 65.30612,0.41625 54.84561,0 65.30613,-0.23109 65.30613,-1.4427 z"
     id="path15"
     transform="scale(0.75)" />
  <path
     style="fill:#1f2933;stroke-width:1.04654;fill-opacity:1"
     d="m 417.37865,542.04082 c 3.50771,-3.87919 7.42431,-9.16898 8.70358,-11.75511 l 2.32593,-4.70204 0.32329,-147.05972 0.32328,-147.05971 -3.82598,-7.28085 c -2.13182,-4.05686 -6.0723,-9.38202 -8.89893,-12.026 l -5.07294,-4.74515 h 45.46996 c 30.04723,0 45.25092,0.35442 44.82418,1.0449 -0.35518,0.5747 -1.25899,1.0449 -2.00848,1.0449 -2.16848,0 -10.61996,9.6644 -13.60794,15.56089 l -2.73102,5.38941 0.29209,148.08812 c 0.28174,142.84091 0.36195,148.2177 2.26382,151.74525 3.03649,5.63203 7.94017,11.47018 12.26667,14.60428 l 3.92427,2.84272 -13.26093,0.67635 c -7.29351,0.37199 -27.75713,0.67825 -45.47471,0.68058 l -32.21378,0.004 z"
     id="path16"
     transform="scale(0.75)" />
  <path
     style="fill:#1f2933;stroke-width:1.04654;fill-opacity:1"
     d="m 613.87755,551.18211 c -21.74482,-2.09259 -62.25361,-16.01498 -64.75103,-22.25416 -0.80068,-2.00031 -3.28015,-63.14185 -3.14415,-77.53203 0.0486,-5.14227 0.12822,-5.01017 5.05927,8.39375 11.81476,32.11572 25.82294,52.25552 47.83887,68.77874 21.28271,15.97293 40.02675,21.48639 65.98391,19.40879 16.0135,-1.28171 28.42239,-5.80992 41.68354,-15.21101 14.7299,-10.44233 23.48044,-28.16255 23.67036,-47.93354 0.22341,-23.25735 -11.26676,-41.90027 -35.88157,-58.21821 -6.03541,-4.00106 -23.43389,-13.48374 -38.66328,-21.07261 -32.84637,-16.3675 -38.53405,-19.47477 -54.33469,-29.68398 -23.73017,-15.33267 -34.08128,-25.71438 -42.41006,-42.5354 -7.02826,-14.19446 -8.90685,-21.7126 -9.54289,-38.19083 -0.46809,-12.12721 -0.23057,-15.42476 1.65578,-22.98776 4.17153,-16.72501 14.13204,-33.30081 25.809,-42.95009 11.16225,-9.22395 29.67419,-18.28136 48.09907,-23.53364 10.2022,-2.90828 10.74652,-2.94993 38.56052,-2.94993 25.71811,0 29.22838,0.2183 39.70613,2.46922 15.83392,3.40158 30.93071,8.00524 40.01397,12.20196 l 7.64175,3.53071 -0.5139,4.48273 c -0.28264,2.4655 -0.58603,19.29416 -0.6742,37.39702 l -0.16029,32.91428 -1.85421,-5.74694 c -5.42655,-16.81905 -15.56326,-37.90263 -23.20231,-48.25907 -7.04555,-9.5518 -21.13145,-22.65228 -28.63324,-26.63013 -12.25078,-6.49601 -20.07038,-8.18709 -37.54819,-8.12023 -14.10105,0.0539 -16.51209,0.33953 -24.03265,2.84673 -16.92571,5.64268 -30.39148,16.34044 -37.3216,29.64978 -4.66112,8.95172 -6.04855,15.49214 -6.01612,28.36027 0.042,16.66642 3.07086,25.14473 13.7057,38.36459 11.76821,14.62875 21.32849,20.8754 73.56083,48.06443 20.47097,10.65596 41.9112,22.29998 47.64495,25.87559 30.61828,19.09379 44.8658,44.11153 44.8658,78.78151 0,18.45273 -2.67198,29.77747 -10.71549,45.41564 -7.54412,14.66727 -20.05552,25.74288 -39.72336,35.16474 -11.67891,5.59478 -26.87177,10.57313 -35.81626,11.73615 -8.50093,1.10534 -58.99389,1.08598 -70.55996,-0.0271 z"
     id="path17"
     transform="scale(0.75)" />
  <path
     style="fill:#1f2933;stroke-width:1.04654;fill-opacity:1"
     d="m 911.41158,552.16139 c -20.04695,-2.04682 -36.7067,-8.4012 -51.75499,-19.74043 -19.67888,-14.82847 -31.93676,-32.64235 -41.18991,-59.85958 -3.22142,-9.47549 -3.29704,-10.14331 -3.72941,-32.938 -0.50487,-26.61646 0.29941,-32.22078 7.15775,-49.87644 7.56596,-19.47729 18.06748,-35.35651 32.54306,-49.20797 14.29646,-13.68006 27.58505,-21.20213 46.27285,-26.19296 9.44658,-2.52283 12.22994,-2.791 29.24825,-2.81795 17.51969,-0.0277 19.43784,0.16366 27.99971,2.79388 38.09285,11.70218 59.21891,38.71519 62.86921,80.38826 l 0.6179,7.05307 h -81.53119 -81.53114 l 0.006,14.88979 c 0.0152,36.68262 8.69366,59.96399 29.91815,80.26002 8.85383,8.46652 14.60411,12.42928 25.70668,17.71557 12.89807,6.14118 18.7065,7.29788 36.64666,7.29788 14.55752,0 16.17207,-0.20472 25.03607,-3.17443 20.88641,-6.99759 33.05747,-15.88744 44.63657,-32.60293 3.0814,-4.44816 5.7595,-7.93048 5.9515,-7.7385 0.526,0.52597 -2.3451,8.25855 -6.6011,17.77841 -15.5752,34.83902 -46.38471,54.32589 -89.20273,56.42033 -5.45959,0.26706 -14.04111,0.0654 -19.07005,-0.44802 z m 65.59956,-167.90017 c -2.75928,-38.01763 -15.9686,-61.72897 -37.06108,-66.52635 -30.19575,-6.86788 -58.40502,9.87003 -72.10747,42.7848 -3.72615,8.95062 -8.41402,26.18247 -8.41402,30.9286 v 3.00071 h 59.161 59.16099 z"
     id="path18"
     transform="scale(0.75)" />
  <path
     style="fill:#1f2933;fill-opacity:1;stroke-width:1.04654"
     d="m 1133.5682,552.84358 c -20.8408,-3.97195 -33.6676,-12.1106 -40.4485,-25.66465 -6.4062,-12.80524 -6.4305,-13.22961 -6.3807,-111.04832 l 0.045,-88.5551 -14.6737,-0.016 c -8.0705,-0.009 -15.3487,-0.44317 -16.1738,-0.96526 -2.2696,-1.43613 0.2411,-3.87247 4.8893,-4.74448 10.6505,-1.99804 31.0093,-14.48031 42.5863,-26.11022 7.798,-7.8336 16.3088,-19.86175 23.6828,-33.47016 l 4.5295,-8.35919 0.6615,6.79184 c 0.3639,3.73551 0.7165,18.42939 0.7837,32.65306 l 0.1221,25.86123 h 36.5715 36.5714 v 3.65714 3.65714 h -36.5714 -36.5715 v 89.36858 89.36856 l 3.2495,6.43711 c 1.7872,3.5404 4.2209,7.75107 5.4082,9.35703 4.7259,6.39213 17.7201,12.35852 26.9156,12.35852 6.7833,0 21.8791,-4.54214 31.027,-9.33565 4.1731,-2.18671 7.5872,-3.68443 7.5868,-3.32825 -3e-4,0.35616 -2.1343,3.36554 -4.7422,6.68749 -14.939,19.02949 -44.8252,30.01999 -69.0685,25.39958 z"
     id="path20"
     transform="scale(0.75)"
     sodipodi:nodetypes="sssccsssscsscccccccccssssssss" />
  <path
     style="fill:#1f2933;fill-opacity:1;stroke-width:1.04654"
     d="m 1261.3696,548.50569 c -23.23,-7.42696 -22.7153,-46.27918 0.7052,-53.23431 13.7337,-4.07848 26.8142,0.89983 33.8609,12.88718 2.4868,4.23024 2.8725,6.00873 2.8725,13.24552 0,12.01977 -4.1553,19.57701 -13.9231,25.3221 -5.7192,3.36381 -16.1025,4.14955 -23.5155,1.77951 z"
     id="path21"
     transform="scale(0.75)"
     sodipodi:nodetypes="ssssss" />
</svg>
